# xmcd
#
# Track frame offsets:
#	150
#	21325
#	45253
#	62475
#	88548
#	115630
#	140017
#	157548
#	181494
#
# Disc length: 2631 seconds
#
# Revision: 1
# Processed by: cddbd v1.5.2PL0 Copyright (c) Steve Scherf et al.
# Submitted via: audiograbber 1.83.01
#
DISCID=640a4509
DTITLE=The Frank Christopher Band - The House Is On Fire
DYEAR=2016
DGENRE=Blues
TTITLE0=Take Back My Love
TTITLE1=Good Lovin' Woman
TTITLE2=Please Be Careful Baby
TTITLE3=The House Is On Fire
TTITLE4=Go On Home
TTITLE5=I'll Be There
TTITLE6=I Got Your Number
TTITLE7=Mean Old Blues
TTITLE8=Cold-Hearted Woman
EXTD=
EXTT0=
EXTT1=
EXTT2=
EXTT3=
EXTT4=
EXTT5=
EXTT6=
EXTT7=
EXTT8=
PLAYORDER=
